<svg width="60" height="14" viewBox="0 0 60 14" fill="none" xmlns="http://www.w3.org/2000/svg">
<path d="M46.8418 2.78908C46.5506 2.78908 46.3155 3.02529 46.3155 3.31647V11.7348C46.3155 12.026 46.0804 12.261 45.7892 12.261H38.3937C38.1154 12.247 37.8943 12.0178 37.8943 11.736C37.8943 11.4436 37.6592 11.2086 37.368 11.2086C37.0767 11.2086 36.8417 11.4436 36.8417 11.7348C36.8417 11.9196 36.8732 12.0961 36.9317 12.261C37.0896 12.7089 37.4452 13.0644 37.8943 13.2234C38.0581 13.2819 38.2358 13.3134 38.4206 13.3134H45.7892C45.974 13.3134 46.1518 13.2819 46.3155 13.2234C46.7647 13.0655 47.1202 12.71 47.2781 12.261C47.3366 12.0973 47.3682 11.9196 47.3682 11.7348V3.31647C47.3682 3.02529 47.1331 2.78908 46.8418 2.78908Z" fill="white"/>
<path d="M59.9099 3.84151C59.752 3.39247 59.3965 3.03698 58.9473 2.87912C58.7836 2.82065 58.6058 2.78908 58.421 2.78908H51.0525C50.8677 2.78908 50.6899 2.82065 50.5261 2.87912C50.077 3.03698 49.7214 3.39247 49.5635 3.84151C49.5051 4.00523 49.4735 4.18297 49.4735 4.36773V11.7348C49.4735 11.9196 49.5051 12.0961 49.5635 12.261C49.7214 12.7089 50.077 13.0644 50.5261 13.2234C50.6899 13.2819 50.8677 13.3134 51.0525 13.3134H58.421C58.6058 13.3134 58.7836 13.2819 58.9473 13.2234C59.3965 13.0655 59.752 12.71 59.9099 12.261C59.9684 12.0973 60 11.9196 60 11.7348V4.36773C60 4.18297 59.9684 4.00523 59.9099 3.84151ZM51.0256 12.261C50.7472 12.247 50.5261 12.0178 50.5261 11.736V4.36773C50.5261 4.07656 50.7612 3.84151 51.0525 3.84151H58.421C58.7123 3.84151 58.9473 4.07656 58.9473 4.36773V11.7348C58.9473 12.026 58.7123 12.261 58.421 12.261H51.0256Z" fill="white"/>
<path d="M10.5569 2.79259L10.5254 2.79142C10.4166 2.79142 10.3113 2.80779 10.2119 2.83936C10.1628 2.85456 10.116 2.87444 10.0704 2.89666C9.96277 2.94811 9.86335 3.01711 9.78031 3.1013L9.22123 3.65909L6.14632 6.73338C6.05275 6.82225 5.92643 6.87604 5.78725 6.87604C5.64806 6.87604 5.51122 6.81757 5.41531 6.72168L1.89126 3.19602C1.8667 3.16562 1.84214 3.13638 1.81407 3.10949C1.786 3.08259 1.75793 3.05686 1.72752 3.03231C1.63512 2.95747 1.52985 2.89783 1.41406 2.85924C1.38716 2.84988 1.36026 2.84053 1.33219 2.83351C1.30412 2.8265 1.27605 2.82065 1.24681 2.8148C1.1895 2.80545 1.12985 2.7996 1.0702 2.7996H1.05148C0.980136 2.80077 0.911129 2.80896 0.843291 2.82416C0.809372 2.83117 0.776623 2.84053 0.745044 2.85105C0.691242 2.86859 0.639779 2.89081 0.590655 2.91654C0.569602 2.92706 0.548549 2.93876 0.528665 2.95162C0.426909 3.01243 0.335679 3.09078 0.260824 3.18082C0.252637 3.19134 0.245619 3.20187 0.237432 3.21239C0.203513 3.25566 0.173103 3.30126 0.146202 3.35038C0.066668 3.49655 0.021053 3.66494 0.0187138 3.84268H0V12.7907C0 13.0702 0.218718 13.2971 0.492407 13.3146C0.494746 13.3146 0.497086 13.3146 0.499425 13.3146C0.508782 13.3158 0.516969 13.3158 0.526326 13.3158C0.535683 13.3158 0.54387 13.3158 0.553227 13.3146C0.831595 13.3006 1.05265 13.0714 1.05265 12.7896V4.58757C1.05265 4.41802 1.19067 4.27886 1.36143 4.27886C1.43629 4.27886 1.50412 4.30576 1.55793 4.35019L1.56962 4.36072C1.58015 4.37007 1.59067 4.3806 1.60003 4.39112L4.9346 7.72501C4.96852 7.76476 5.00361 7.80218 5.0422 7.83843C5.05624 7.85013 5.07027 7.86299 5.08431 7.87469C5.10185 7.88989 5.12174 7.90392 5.14045 7.91678C5.32291 8.04892 5.54748 8.12727 5.78959 8.12727C6.0317 8.12727 6.23755 8.05594 6.41533 7.93432C6.44106 7.91678 6.46562 7.89807 6.49019 7.87936L6.49486 7.87469C6.5089 7.86299 6.52176 7.8513 6.5358 7.83843C6.5744 7.80335 6.61066 7.76476 6.64457 7.72501L9.97914 4.39112L9.99903 4.37007C10.0552 4.31394 10.1324 4.27886 10.2177 4.27886C10.3885 4.27886 10.5265 4.41802 10.5265 4.58757V12.7825C10.5265 13.0644 10.7476 13.2936 11.0259 13.3076H11.0797C11.3569 13.2936 11.5792 13.0644 11.5792 12.7825V3.83567C11.5745 3.26852 11.123 2.80896 10.5593 2.79259H10.5569Z" fill="white"/>
<path d="M1.48424 2.78908L1.4819 2.79142H1.48658L1.48424 2.78908Z" fill="white"/>
<path d="M35.6989 1.73664C35.5422 1.2876 35.1867 0.932111 34.7375 0.774246C34.5726 0.715777 34.396 0.684204 34.2112 0.684204H26.8426C26.6567 0.684204 26.48 0.715777 26.3163 0.774246C25.866 0.932111 25.5116 1.2876 25.3537 1.73664C25.2952 1.90035 25.2636 2.0781 25.2636 2.26286V4.4987L24.211 5.13718V4.36773C24.211 4.18297 24.1782 4.00523 24.1198 3.84151C23.963 3.39247 23.6075 3.03698 23.1583 2.87912C22.9934 2.82065 22.8168 2.78908 22.632 2.78908H15.2635C15.0775 2.78908 14.9009 2.82065 14.7371 2.87912C14.2868 3.03698 13.9324 3.39247 13.7745 3.84151C13.7161 4.00523 13.6845 4.18297 13.6845 4.36773V6.99882H13.6833V7.52504C13.6833 7.80686 13.9055 8.03606 14.1827 8.05009H14.2365C14.5149 8.03606 14.736 7.80686 14.736 7.52504V6.99882H14.7371V4.36773C14.7371 4.07656 14.9722 3.84151 15.2635 3.84151H22.632C22.9221 3.84151 23.1583 4.07656 23.1583 4.36773V5.48682H23.156C23.1537 5.66925 23.0601 5.82945 22.9186 5.92066C22.9162 5.923 22.9127 5.92534 22.9104 5.92651C22.8917 5.9382 22.8718 5.94873 22.8519 5.95808V5.96159L21.018 7.07483C20.777 7.22101 20.6963 7.52972 20.8273 7.77412L20.8554 7.82089C21.0121 8.05126 21.3232 8.12142 21.5642 7.97525L26.0625 5.24476C26.2239 5.14537 26.3163 4.9723 26.3163 4.79338V2.26286C26.3163 1.97168 26.5514 1.73664 26.8426 1.73664H34.2112C34.5013 1.73664 34.7375 1.97168 34.7375 2.26286V2.78908H34.7363V3.3153C34.7363 3.59711 34.9586 3.82631 35.2358 3.84034H35.2896C35.5679 3.82631 35.789 3.59711 35.789 3.3153V2.78908H35.7902V2.26286C35.7902 2.0781 35.7574 1.90035 35.6989 1.73664Z" fill="#1BFFB4"/>
<path d="M35.789 6.47261C35.789 6.19079 35.5668 5.96159 35.2896 5.94756H35.2358C34.9574 5.96159 34.7363 6.19079 34.7363 6.47261V6.99882H34.7375V9.62992C34.7375 9.92109 34.5013 10.1561 34.2112 10.1561H26.8157C26.5374 10.1421 26.3163 9.9129 26.3163 9.63109V8.9166C26.3233 8.75639 26.4017 8.6149 26.5198 8.52369C26.521 8.52252 26.5233 8.52135 26.5245 8.52018L28.4544 7.34964C28.7035 7.19879 28.783 6.87604 28.6333 6.62696C28.4836 6.37906 28.1584 6.29954 27.9093 6.45039L23.4098 9.17971C23.2484 9.2791 23.1583 9.45217 23.1583 9.62992V11.7348C23.1583 12.026 22.9221 12.261 22.632 12.261H15.2366C14.9582 12.247 14.7371 12.0178 14.7371 11.736V11.2086H14.736V10.6824C14.736 10.4005 14.5137 10.1713 14.2365 10.1573H14.1827C13.9044 10.1713 13.6833 10.4005 13.6833 10.6824V11.2086H13.6845V11.7348C13.6845 11.9196 13.7161 12.0961 13.7745 12.261C13.9324 12.7089 14.2868 13.0644 14.7371 13.2234C14.9009 13.2819 15.0775 13.3134 15.2635 13.3134H22.632C22.8168 13.3134 22.9934 13.2819 23.1583 13.2234C23.6075 13.0655 23.963 12.71 24.1198 12.261C24.1782 12.0973 24.211 11.9196 24.211 11.7348V9.92577L25.2636 9.28729V9.62992C25.2636 9.81468 25.2952 9.99125 25.3537 10.1561C25.5116 10.604 25.866 10.9595 26.3163 11.1185C26.48 11.177 26.6567 11.2086 26.8426 11.2086H34.2112C34.396 11.2086 34.5726 11.177 34.7375 11.1185C35.1867 10.9607 35.5422 10.6052 35.6989 10.1561C35.7574 9.99242 35.7902 9.81468 35.7902 9.62992V6.99882H35.789V6.47261Z" fill="#1BFFB4"/>
</svg>
