<svg width="178" height="20" viewBox="0 0 178 20" fill="none" xmlns="http://www.w3.org/2000/svg">
  <path fill-rule="evenodd" clip-rule="evenodd" d="M74.6461 17.0647C71.1457 15.2014 68.5831 12.4288 67.1821 10.3287C65.8595 11.427 65.2075 12.9289 65.4643 14.3724C65.6712 15.5391 66.2761 16.4597 67.2609 17.1091C68.5901 17.9849 70.4681 18.2621 72.4134 17.8684C73.2331 17.7028 73.9768 17.4199 74.6461 17.0647ZM66.1287 18.7222C64.6954 17.7772 63.7796 16.3873 63.4806 14.7033C63.0797 12.4504 64.1153 10.1471 66.196 8.59234C64.5852 5.13596 65.7422 2.90146 67.0846 1.60036C68.1409 0.57733 69.5444 0.00920208 71.0367 0H71.0739C72.5807 0 73.9953 0.567728 75.0619 1.60036C76.0806 2.58818 76.7132 4.06852 76.7132 5.46484V6.44026H74.7002C74.7002 6.44026 74.6919 6.11338 74.7002 5.50524V5.46484C74.7002 4.58064 74.2831 3.60521 73.6377 2.97987C72.9469 2.31012 72.0286 1.94884 71.0495 1.95044C70.0899 1.95604 69.1872 2.32212 68.508 2.97987C67.0623 4.38139 67.064 6.25341 68.515 8.70277C69.7546 10.7948 72.5286 13.984 76.4741 15.7896C77.6456 14.6985 78.3525 13.8135 78.8815 12.8073H77.4329V10.8573H82.5342V12.8073H81.1389C80.5138 14.2216 79.5764 15.5143 78.5474 16.5661C79.4026 16.8182 80.3015 16.9994 81.2409 17.0915C81.9148 17.1391 82.2336 17.1383 82.2336 17.1383V19.0871C82.2336 19.0871 81.9111 19.0983 81.2273 19.0499V19.0495C79.652 18.9135 78.1783 18.5554 76.816 18.0453C75.7143 18.8195 74.3901 19.4612 72.8243 19.7777C72.1124 19.9217 71.4038 19.9925 70.713 19.9925C68.9994 19.9925 67.3964 19.5568 66.1287 18.7222ZM107.312 19.7065V0.203286H117.88V2.14532H109.325V8.97207L116.873 8.98007V10.9221H109.325V17.7553H117.88V19.7065H107.312ZM153.042 0.203286V19.7065H163.608V17.7557H155.055V0.203286H153.042ZM33.9186 19.7077V0.203286H44.4861V2.14532L35.932 2.15373V8.98007H43.4802V10.9221L35.932 10.9305V19.7077H33.9186ZM0 0.203286V2.15373H5.53609V19.7077H7.54868V2.15373H13.0844V0.203286H0ZM30.6866 12.9056C30.6866 16.8237 27.4092 20 23.3646 20C19.3208 20 16.0418 16.8237 16.0418 12.9056V0.203526H18.0556V13.116L18.061 13.1212C18.1782 15.8615 20.5067 18.0496 23.3646 18.0496C26.2224 18.0496 28.5513 15.8615 28.6682 13.1212L28.674 13.116V0.203526H30.6866V12.9056ZM101.609 0.203286V13.3066L90.1246 0.203286H87.4819L88.4902 1.35235V19.7077H90.5037V3.64566L101.609 16.3169V19.7065H103.622V0.203286H101.609ZM47.5933 2.15373V0.203286H60.6777V2.15373H55.142V19.7077H53.129V2.15373H47.5933ZM121.4 0.203286V19.7065H131.969V17.7553H123.414V10.9221H130.962V8.98007L123.414 8.97207V2.14532H131.969V0.203286H121.4ZM167.432 19.7065V0.203286H178V2.14532H169.445V8.97207L176.993 8.98007V10.9221H169.445V17.7553H178V19.7065H167.432ZM139.618 0.203446H135.794V19.7063H139.618C145.177 19.7063 149.683 15.3401 149.683 9.95405C149.683 4.56803 145.177 0.203446 139.618 0.203446ZM137.807 17.7558H139.618C144.065 17.7558 147.67 14.2634 147.67 9.95405C147.67 5.64548 144.065 2.15229 139.618 2.15229H137.807V17.7558Z" fill="#2B2823"></path>
</svg>